<?xml version="1.0" encoding="UTF-8" standalone="no"?>
<!-- Created with Inkscape (http://www.inkscape.org/) -->

<svg
   width="105.88778mm"
   height="105.88798mm"
   viewBox="0 0 105.88778 105.88798"
   version="1.1"
   id="svg1"
   inkscape:export-filename="bitmap.svg"
   inkscape:export-xdpi="96"
   inkscape:export-ydpi="96"
   sodipodi:docname="manta - Copia.svg"
   inkscape:version="1.4.3 (0d15f75, 2025-12-25)"
   xmlns:inkscape="http://www.inkscape.org/namespaces/inkscape"
   xmlns:sodipodi="http://sodipodi.sourceforge.net/DTD/sodipodi-0.dtd"
   xmlns="http://www.w3.org/2000/svg"
   xmlns:svg="http://www.w3.org/2000/svg">
  <sodipodi:namedview
     id="namedview1"
     pagecolor="#ffffff"
     bordercolor="#666666"
     borderopacity="1.0"
     inkscape:showpageshadow="2"
     inkscape:pageopacity="0.0"
     inkscape:pagecheckerboard="0"
     inkscape:deskcolor="#d1d1d1"
     inkscape:document-units="mm"
     inkscape:zoom="1.9912452"
     inkscape:cx="203.64142"
     inkscape:cy="125.29848"
     inkscape:window-width="3440"
     inkscape:window-height="1372"
     inkscape:window-x="1912"
     inkscape:window-y="-8"
     inkscape:window-maximized="1"
     inkscape:current-layer="layer1" />
    <defs
     id="defs1">
    <linearGradient id="goldFill" x1="0%" y1="0%" x2="100%" y2="100%">
      <stop offset="0%" stop-color="#0A0A0A"/>
      <stop offset="28%" stop-color="#181512"/>
      <stop offset="52%" stop-color="#5F481E"/>
      <stop offset="72%" stop-color="#16130F"/>
      <stop offset="100%" stop-color="#050505"/>
    </linearGradient>
    <linearGradient id="goldStroke" x1="0%" y1="0%" x2="0%" y2="100%">
      <stop offset="0%" stop-color="#2E2616"/>
      <stop offset="38%" stop-color="#B78A34"/>
      <stop offset="62%" stop-color="#7A5A22"/>
      <stop offset="100%" stop-color="#17120D"/>
    </linearGradient>
  </defs>
  <g
     inkscape:label="Livello 1"
     inkscape:groupmode="layer"
     id="layer1"
     transform="translate(-53.582715,-90.5454)">
    <g
       id="g154"
       transform="matrix(0.35277777,0,0,0.35277777,50.642724,80.541572)">
      <path
         style="fill:none;stroke:url(#goldStroke);stroke-width:0.850394;stroke-linecap:round;stroke-linejoin:round"
         d="m 101.341,301.513 h 52.552"
         id="path1" />
      <path
         style="fill:none;stroke:url(#goldStroke);stroke-width:0.850394;stroke-linecap:round;stroke-linejoin:round"
         d="m 162.929,301.513 h 52.552"
         id="path2" />
      <path
         style="fill:none;stroke:url(#goldStroke);stroke-width:0.850394;stroke-linecap:round;stroke-linejoin:round"
         d="M 235.131,290.324 H 166.923"
         id="path3" />
      <path
         style="fill:none;stroke:url(#goldStroke);stroke-width:0.850394;stroke-linecap:round;stroke-linejoin:round"
         d="M 149.9,290.324 H 81.6909"
         id="path4" />
      <path
         style="fill:none;stroke:url(#goldStroke);stroke-width:0.850394;stroke-linecap:round;stroke-linejoin:round"
         d="M 69.0746,280.534 H 145.711"
         id="path5" />
      <path
         style="fill:none;stroke:url(#goldStroke);stroke-width:0.850394;stroke-linecap:round;stroke-linejoin:round"
         d="m 171.111,280.534 h 76.637"
         id="path6" />
      <path
         style="fill:none;stroke:url(#goldStroke);stroke-width:0.850394;stroke-linecap:round;stroke-linejoin:round"
         d="M 256.514,272.142 H 175.257"
         id="path7" />
      <path
         style="fill:none;stroke:url(#goldStroke);stroke-width:0.850394;stroke-linecap:round;stroke-linejoin:round"
         d="M 141.565,272.142 H 60.3083"
         id="path8" />
      <path
         style="fill:none;stroke:url(#goldStroke);stroke-width:0.850394;stroke-linecap:round;stroke-linejoin:round"
         d="M 54.0758,265.149 H 137.688"
         id="path9" />
      <path
         style="fill:none;stroke:url(#goldStroke);stroke-width:0.850394;stroke-linecap:round;stroke-linejoin:round"
         d="m 179.134,265.149 h 83.613"
         id="path10" />
      <path
         style="fill:none;stroke:url(#goldStroke);stroke-width:0.850394;stroke-linecap:round;stroke-linejoin:round"
         d="m 82.7779,132.853 -8.0598,4.929"
         id="path11" />
      <path
         style="fill:none;stroke:url(#goldStroke);stroke-width:0.850394;stroke-linecap:round;stroke-linejoin:round"
         d="m 61.8599,145.646 -8.6789,5.308"
         id="path12" />
      <path
         style="fill:none;stroke:url(#goldStroke);stroke-width:0.850394;stroke-linecap:round;stroke-linejoin:round"
         d="M 267.153,259.555 H 182.532"
         id="path13" />
      <path
         style="fill:none;stroke:url(#goldStroke);stroke-width:0.850394;stroke-linecap:round;stroke-linejoin:round"
         d="M 134.29,259.555 H 49.6692"
         id="path14" />
      <path
         style="fill:none;stroke:url(#goldStroke);stroke-width:0.850394;stroke-linecap:round;stroke-linejoin:round"
         d="M 77.9648,180.055 68.1019,164.066"
         id="path15" />
      <path
         style="fill:none;stroke:url(#goldStroke);stroke-width:0.850394;stroke-linecap:round;stroke-linejoin:round"
         d="m 52.714,152.871 18.8191,31.116"
         id="path16" />
      <path
         style="fill:none;stroke:url(#goldStroke);stroke-width:0.850394;stroke-linecap:round;stroke-linejoin:round"
         d="m 74.1118,139.389 6.6107,21.35"
         id="path17" />
      <path
         style="fill:none;stroke:url(#goldStroke);stroke-width:0.850394;stroke-linecap:round;stroke-linejoin:round"
         d="M 91.0637,172.434 85.0059,153.717"
         id="path18" />
      <path
         style="fill:none;stroke:url(#goldStroke);stroke-width:0.850394;stroke-linecap:round;stroke-linejoin:round"
         d="m 118.403,146.172 0.511,-12.477"
         id="path19" />
      <path
         style="fill:none;stroke:url(#goldStroke);stroke-width:0.850394;stroke-linecap:round;stroke-linejoin:round"
         d="m 117.601,159.993 0.376,-7.087"
         id="path20" />
      <path
         style="fill:none;stroke:url(#goldStroke);stroke-width:0.850394;stroke-linecap:round;stroke-linejoin:round"
         d="m 118.403,146.172 -0.426,6.734"
         id="path21" />
      <path
         style="fill:none;stroke:url(#goldStroke);stroke-width:0.850394;stroke-linecap:round;stroke-linejoin:round"
         d="m 112.29,122.884 -3.026,38.373"
         id="path22" />
      <path
         style="fill:none;stroke:url(#goldStroke);stroke-width:0.850394;stroke-linecap:round;stroke-linejoin:round"
         d="m 70.2763,162.338 14.2469,14.105"
         id="path23" />
      <path
         style="fill:none;stroke:url(#goldStroke);stroke-width:0.850394;stroke-linecap:round;stroke-linejoin:round"
         d="M 78.3987,162.143 61.8599,145.646"
         id="path24" />
      <path
         style="fill:none;stroke:url(#goldStroke);stroke-width:0.850394;stroke-linecap:round;stroke-linejoin:round"
         d="m 87.533,152.562 9.5613,15.793"
         id="path25" />
      <path
         style="fill:none;stroke:url(#goldStroke);stroke-width:0.850394;stroke-linecap:round;stroke-linejoin:round"
         d="m 122.678,149.868 v -3.731"
         id="path26" />
      <path
         style="fill:none;stroke:url(#goldStroke);stroke-width:0.850394;stroke-linecap:round;stroke-linejoin:round"
         d="m 73.4596,184.456 4.0445,-2.473"
         id="path27" />
      <path
         style="fill:none;stroke:url(#goldStroke);stroke-width:0.850394;stroke-linecap:round;stroke-linejoin:round"
         d="m 86.237,176.642 4.2258,-2.584"
         id="path28" />
      <path
         style="fill:none;stroke:url(#goldStroke);stroke-width:0.850394;stroke-linecap:round;stroke-linejoin:round"
         d="m 99.0204,168.824 4.1206,-2.52"
         id="path29" />
      <path
         style="fill:none;stroke:url(#goldStroke);stroke-width:0.850394;stroke-linecap:round;stroke-linejoin:round"
         d="M 103.606,164.384 84.7024,133.32"
         id="path30" />
      <path
         style="fill:none;stroke:url(#goldStroke);stroke-width:0.850394;stroke-linecap:round;stroke-linejoin:round"
         d="m 155.796,152.764 1.166,-21.493"
         id="path31" />
      <path
         style="fill:none;stroke:url(#goldStroke);stroke-width:0.850394;stroke-linecap:round;stroke-linejoin:round"
         d="m 150.67,115.986 -2.494,36.278"
         id="path32" />
      <path
         style="fill:none;stroke:url(#goldStroke);stroke-width:0.850394;stroke-linecap:round;stroke-linejoin:round"
         d="m 141.717,152.838 -19.88,-32.393"
         id="path33" />
      <path
         style="fill:none;stroke:url(#goldStroke);stroke-width:0.850394;stroke-linecap:round;stroke-linejoin:round"
         d="m 131.424,150.451 2.977,5.106"
         id="path34" />
      <path
         style="fill:none;stroke:url(#goldStroke);stroke-width:0.850394;stroke-linecap:round;stroke-linejoin:round"
         d="m 121.527,133.061 5.185,9.123"
         id="path35" />
      <path
         style="fill:none;stroke:url(#goldStroke);stroke-width:0.850394;stroke-linecap:round;stroke-linejoin:round"
         d="M 174.219,117.607 173.096,139.1"
         id="path36" />
      <path
         style="fill:none;stroke:url(#goldStroke);stroke-width:0.850394;stroke-linecap:round;stroke-linejoin:round"
         d="m 179.368,154.383 2.469,-36.28"
         id="path37" />
      <path
         style="fill:none;stroke:url(#goldStroke);stroke-width:0.850394;stroke-linecap:round;stroke-linejoin:round"
         d="m 199.411,120.773 -1.367,3.541"
         id="path38" />
      <path
         style="fill:none;stroke:url(#goldStroke);stroke-width:0.850394;stroke-linecap:round;stroke-linejoin:round"
         d="M 206.731,130.662 195.93,158.393"
         id="path39" />
      <path
         style="fill:none;stroke:url(#goldStroke);stroke-width:0.850394;stroke-linecap:round;stroke-linejoin:round"
         d="m 247.468,142.125 -30.654,23.279"
         id="path40" />
      <path
         style="fill:none;stroke:url(#goldStroke);stroke-width:0.850394;stroke-linecap:round;stroke-linejoin:round"
         d="m 111.011,162.72 5.546,-1.448"
         id="path41" />
      <path
         style="fill:none;stroke:url(#goldStroke);stroke-width:0.850394;stroke-linecap:round;stroke-linejoin:round"
         d="m 135.963,156.206 4.916,-1.284"
         id="path42" />
      <path
         style="fill:none;stroke:url(#goldStroke);stroke-width:0.850394;stroke-linecap:round;stroke-linejoin:round"
         d="m 149.476,153.756 4.829,0.327"
         id="path43" />
      <path
         style="fill:none;stroke:url(#goldStroke);stroke-width:0.850394;stroke-linecap:round;stroke-linejoin:round"
         d="m 172.131,155.293 5.747,0.39"
         id="path44" />
      <path
         style="fill:none;stroke:url(#goldStroke);stroke-width:0.850394;stroke-linecap:round;stroke-linejoin:round"
         d="M 159.621,130.744 170.964,154.5"
         id="path45" />
      <path
         style="fill:none;stroke:url(#goldStroke);stroke-width:0.850394;stroke-linecap:round;stroke-linejoin:round"
         d="M 170.437,139.63 159.101,115.871"
         id="path46" />
      <path
         style="fill:none;stroke:url(#goldStroke);stroke-width:0.850394;stroke-linecap:round;stroke-linejoin:round"
         d="m 203.295,161.239 10.81,-27.751"
         id="path47" />
      <path
         style="fill:none;stroke:url(#goldStroke);stroke-width:0.850394;stroke-linecap:round;stroke-linejoin:round"
         d="m 234.155,162.187 9.653,-7.924"
         id="path48" />
      <path
         style="fill:none;stroke:url(#goldStroke);stroke-width:0.850394;stroke-linecap:round;stroke-linejoin:round"
         d="m 223.306,170.786 5.54,-4.437"
         id="path49" />
      <path
         style="fill:none;stroke:url(#goldStroke);stroke-width:0.850394;stroke-linecap:round;stroke-linejoin:round"
         d="m 234.017,167.601 2.958,-2.368"
         id="path50" />
      <path
         style="fill:none;stroke:url(#goldStroke);stroke-width:0.850394;stroke-linecap:round;stroke-linejoin:round"
         d="m 234.155,162.187 -5.309,4.162"
         id="path51" />
      <path
         style="fill:none;stroke:url(#goldStroke);stroke-width:0.850394;stroke-linecap:round;stroke-linejoin:round"
         d="m 124.43,151.221 5.433,-1.418"
         id="path52" />
      <path
         style="fill:none;stroke:url(#goldStroke);stroke-width:0.850394;stroke-linecap:round;stroke-linejoin:round"
         d="m 125.849,144.228 -2.126,0.555"
         id="path53" />
      <path
         style="fill:none;stroke:url(#goldStroke);stroke-width:0.850394;stroke-linecap:round;stroke-linejoin:round"
         d="m 196.73,160.205 4.759,1.832"
         id="path54" />
      <path
         style="fill:none;stroke:url(#goldStroke);stroke-width:0.850394;stroke-linecap:round;stroke-linejoin:round"
         d="m 216.885,167.683 4.772,3.175"
         id="path55" />
      <path
         style="fill:none;stroke:url(#goldStroke);stroke-width:0.850394;stroke-linecap:round;stroke-linejoin:round"
         d="m 238.353,181.97 4.23,2.815"
         id="path56" />
      <path
         style="fill:none;stroke:url(#goldStroke);stroke-width:0.850394;stroke-linecap:round;stroke-linejoin:round"
         d="m 223.754,134.224 1.396,-3.53"
         id="path57" />
      <path
         style="fill:none;stroke:url(#goldStroke);stroke-width:0.850394;stroke-linecap:round;stroke-linejoin:round"
         d="m 234.117,169.857 4.956,3.299"
         id="path58" />
      <path
         style="fill:none;stroke:url(#goldStroke);stroke-width:0.850394;stroke-linecap:round;stroke-linejoin:round"
         d="m 240.562,166.45 -1.938,-1.289"
         id="path59" />
      <path
         style="fill:none;stroke:url(#goldStroke);stroke-width:0.850394;stroke-linecap:round;stroke-linejoin:round"
         d="m 120.291,119.823 -6.96,1.818"
         id="path60" />
      <path
         style="fill:none;stroke:url(#goldStroke);stroke-width:0.850394;stroke-linecap:round;stroke-linejoin:round"
         d="m 180.537,116.612 -4.827,-0.327"
         id="path61" />
      <path
         style="fill:none;stroke:url(#goldStroke);stroke-width:0.850394;stroke-linecap:round;stroke-linejoin:round"
         d="m 157.934,115.078 -5.774,-0.392"
         id="path62" />
      <path
         style="fill:none;stroke:url(#goldStroke);stroke-width:0.850394;stroke-linecap:round;stroke-linejoin:round"
         d="m 198.846,126.123 7.084,2.727"
         id="path63" />
      <path
         style="fill:none;stroke:url(#goldStroke);stroke-width:0.850394;stroke-linecap:round;stroke-linejoin:round"
         d="m 215.91,132.69 6.041,2.325"
         id="path64" />
      <path
         style="fill:none;stroke:url(#goldStroke);stroke-width:0.850394;stroke-linecap:round;stroke-linejoin:round"
         d="m 224.352,128.874 -23.134,-8.903"
         id="path65" />
      <path
         style="fill:none;stroke:url(#goldStroke);stroke-width:0.850394;stroke-linecap:round;stroke-linejoin:round"
         d="m 244.697,184.023 10.945,-36.396"
         id="path66" />
      <path
         style="fill:none;stroke:url(#goldStroke);stroke-width:0.850394;stroke-linecap:round;stroke-linejoin:round"
         d="m 239.628,174.753 -1.83,5.62"
         id="path67" />
      <path
         style="fill:none;stroke:url(#goldStroke);stroke-width:0.850394;stroke-linecap:round;stroke-linejoin:round"
         d="m 246.02,155.792 -3.358,9.942"
         id="path68" />
      <path
         style="fill:none;stroke:url(#goldStroke);stroke-width:0.850394;stroke-linecap:round;stroke-linejoin:round"
         d="m 255.078,146.06 -5.989,-3.986"
         id="path69" />
      <path
         style="fill:none;stroke:url(#goldStroke);stroke-width:0.850394;stroke-linecap:round;stroke-linejoin:round"
         d="M 134.289,259.556 C 109.558,220.536 70.4966,191.48 24.5267,179.812"
         id="path70" />
      <path
         style="fill:none;stroke:url(#goldStroke);stroke-width:0.850394;stroke-linecap:round;stroke-linejoin:round"
         d="m 141.58,272.138 c -1.246,-2.361 -2.542,-4.692 -3.886,-6.992"
         id="path71" />
      <path
         style="fill:none;stroke:url(#goldStroke);stroke-width:0.850394;stroke-linecap:round;stroke-linejoin:round"
         d="m 149.931,290.312 c -1.307,-3.311 -2.707,-6.575 -4.197,-9.788"
         id="path72" />
      <path
         style="fill:none;stroke:url(#goldStroke);stroke-width:0.850394;stroke-linecap:round;stroke-linejoin:round"
         d="m 157.034,312.32 c -0.927,-3.652 -1.963,-7.26 -3.106,-10.822"
         id="path73" />
      <path
         style="fill:none;stroke:url(#goldStroke);stroke-width:0.850394;stroke-linecap:round;stroke-linejoin:round"
         d="m 155.615,314.072 c 0.01,0 0.019,0 0.029,0 0.772,0 1.399,-0.627 1.399,-1.399 0,-0.118 -0.015,-0.234 -0.043,-0.344"
         id="path74" />
      <path
         style="fill:none;stroke:url(#goldStroke);stroke-width:0.850394;stroke-linecap:round;stroke-linejoin:round"
         d="m 154.305,154.083 c 0.031,0.002 0.062,0.004 0.094,0.004 0.747,0 1.357,-0.587 1.397,-1.323"
         id="path75" />
      <path
         style="fill:none;stroke:url(#goldStroke);stroke-width:0.850394;stroke-linecap:round;stroke-linejoin:round"
         d="m 159.102,115.871 c -0.213,-0.444 -0.652,-0.758 -1.168,-0.793"
         id="path76" />
      <path
         style="fill:none;stroke:url(#goldStroke);stroke-width:0.850394;stroke-linecap:round;stroke-linejoin:round"
         d="m 152.16,114.686 c -0.032,-0.002 -0.063,-0.003 -0.095,-0.003 -0.74,0 -1.346,0.576 -1.395,1.303"
         id="path77" />
      <path
         style="fill:none;stroke:url(#goldStroke);stroke-width:0.850394;stroke-linecap:round;stroke-linejoin:round"
         d="m 148.176,152.264 c -0.002,0.032 -0.004,0.064 -0.004,0.096 0,0.74 0.576,1.347 1.304,1.396"
         id="path78" />
      <path
         style="fill:none;stroke:url(#goldStroke);stroke-width:0.850394;stroke-linecap:round;stroke-linejoin:round"
         d="m 140.879,154.923 c 0.601,-0.157 1.045,-0.704 1.045,-1.354 0,-0.268 -0.076,-0.519 -0.207,-0.731"
         id="path79" />
      <path
         style="fill:none;stroke:url(#goldStroke);stroke-width:0.850394;stroke-linecap:round;stroke-linejoin:round"
         d="m 134.401,155.557 c 0.243,0.415 0.693,0.694 1.209,0.694 0.122,0 0.24,-0.015 0.353,-0.045"
         id="path80" />
      <path
         style="fill:none;stroke:url(#goldStroke);stroke-width:0.850394;stroke-linecap:round;stroke-linejoin:round"
         d="m 122.678,149.868 c 0,0.772 0.627,1.398 1.399,1.398 0.122,0 0.24,-0.015 0.353,-0.045"
         id="path81" />
      <path
         style="fill:none;stroke:url(#goldStroke);stroke-width:0.850394;stroke-linecap:round;stroke-linejoin:round"
         d="m 123.723,144.783 c -0.601,0.157 -1.045,0.704 -1.045,1.354"
         id="path82" />
      <path
         style="fill:none;stroke:url(#goldStroke);stroke-width:0.850394;stroke-linecap:round;stroke-linejoin:round"
         d="m 121.837,120.445 c -0.246,-0.4 -0.688,-0.667 -1.192,-0.667 -0.122,0 -0.241,0.016 -0.354,0.045"
         id="path83" />
      <path
         style="fill:none;stroke:url(#goldStroke);stroke-width:0.850394;stroke-linecap:round;stroke-linejoin:round"
         d="m 113.331,121.64 c -0.567,0.148 -0.994,0.643 -1.041,1.244"
         id="path84" />
      <path
         style="fill:none;stroke:url(#goldStroke);stroke-width:0.850394;stroke-linecap:round;stroke-linejoin:round"
         d="m 116.557,161.273 c 0.579,-0.151 1.011,-0.663 1.044,-1.28"
         id="path85" />
      <path
         style="fill:none;stroke:url(#goldStroke);stroke-width:0.850394;stroke-linecap:round;stroke-linejoin:round"
         d="m 109.264,161.257 c -0.003,0.036 -0.005,0.073 -0.005,0.11 0,0.772 0.627,1.399 1.399,1.399 0.122,0 0.24,-0.016 0.353,-0.046"
         id="path86" />
      <path
         style="fill:none;stroke:url(#goldStroke);stroke-width:0.850394;stroke-linecap:round;stroke-linejoin:round"
         d="m 97.0942,168.355 c 0.2453,0.404 0.6896,0.675 1.1965,0.675 0.2673,0 0.5172,-0.075 0.7297,-0.206"
         id="path87" />
      <path
         style="fill:none;stroke:url(#goldStroke);stroke-width:0.850394;stroke-linecap:round;stroke-linejoin:round"
         d="m 103.141,166.304 c 0.401,-0.246 0.669,-0.688 0.669,-1.193 0,-0.266 -0.075,-0.515 -0.204,-0.727"
         id="path88" />
      <path
         style="fill:none;stroke:url(#goldStroke);stroke-width:0.850394;stroke-linecap:round;stroke-linejoin:round"
         d="m 84.7024,133.319 c -0.2457,-0.402 -0.689,-0.671 -1.1948,-0.671 -0.2673,0 -0.5172,0.075 -0.7297,0.205"
         id="path89" />
      <path
         style="fill:none;stroke:url(#goldStroke);stroke-width:0.850394;stroke-linecap:round;stroke-linejoin:round"
         d="m 74.7181,137.782 c -0.4011,0.246 -0.6689,0.689 -0.6689,1.194 0,0.144 0.0218,0.283 0.0623,0.413"
         id="path90" />
      <path
         style="fill:none;stroke:url(#goldStroke);stroke-width:0.850394;stroke-linecap:round;stroke-linejoin:round"
         d="m 90.4628,174.058 c 0.4011,-0.246 0.6689,-0.689 0.6689,-1.193 0,-0.151 -0.0238,-0.295 -0.0677,-0.431"
         id="path91" />
      <path
         style="fill:none;stroke:url(#goldStroke);stroke-width:0.850394;stroke-linecap:round;stroke-linejoin:round"
         d="m 84.5234,176.443 c 0.2528,0.25 0.6004,0.405 0.9838,0.405 0.2674,0 0.5173,-0.076 0.7298,-0.206"
         id="path92" />
      <path
         style="fill:none;stroke:url(#goldStroke);stroke-width:0.850394;stroke-linecap:round;stroke-linejoin:round"
         d="m 53.181,150.954 c -0.4011,0.246 -0.6689,0.688 -0.6689,1.193 0,0.265 0.0738,0.513 0.2018,0.724"
         id="path93" />
      <path
         style="fill:none;stroke:url(#goldStroke);stroke-width:0.850394;stroke-linecap:round;stroke-linejoin:round"
         d="m 77.5042,181.983 c 0.4011,-0.246 0.6689,-0.689 0.6689,-1.193 0,-0.27 -0.0763,-0.521 -0.2083,-0.735"
         id="path94" />
      <path
         style="fill:none;stroke:url(#goldStroke);stroke-width:0.850394;stroke-linecap:round;stroke-linejoin:round"
         d="m 71.5331,183.987 c 0.2453,0.404 0.6897,0.675 1.1968,0.675 0.2673,0 0.5172,-0.075 0.7297,-0.206"
         id="path95" />
      <path
         style="fill:none;stroke:url(#goldStroke);stroke-width:0.850394;stroke-linecap:round;stroke-linejoin:round"
         d="m 131.424,150.451 c -0.242,-0.415 -0.693,-0.694 -1.208,-0.694 -0.122,0 -0.24,0.016 -0.353,0.045"
         id="path96" />
      <path
         style="fill:none;stroke:url(#goldStroke);stroke-width:0.850394;stroke-linecap:round;stroke-linejoin:round"
         d="m 125.849,144.229 c 0.602,-0.157 1.046,-0.704 1.046,-1.354 0,-0.251 -0.067,-0.487 -0.183,-0.691"
         id="path97" />
      <path
         style="fill:none;stroke:url(#goldStroke);stroke-width:0.850394;stroke-linecap:round;stroke-linejoin:round"
         d="m 121.527,133.061 c -0.24,-0.423 -0.695,-0.708 -1.216,-0.708 -0.753,0 -1.367,0.596 -1.397,1.342"
         id="path98" />
      <path
         style="fill:none;stroke:url(#goldStroke);stroke-width:0.850394;stroke-linecap:round;stroke-linejoin:round"
         d="m 159.621,130.744 c -0.225,-0.47 -0.706,-0.796 -1.262,-0.796 -0.747,0 -1.358,0.586 -1.397,1.323"
         id="path99" />
      <path
         style="fill:none;stroke:url(#goldStroke);stroke-width:0.850394;stroke-linecap:round;stroke-linejoin:round"
         d="m 70.2761,162.338 c -0.2527,-0.25 -0.6003,-0.405 -0.9838,-0.405 -0.772,0 -1.3986,0.627 -1.3986,1.399 0,0.269 0.0762,0.52 0.2082,0.734"
         id="path100" />
      <path
         style="fill:none;stroke:url(#goldStroke);stroke-width:0.850394;stroke-linecap:round;stroke-linejoin:round"
         d="m 78.3989,162.143 c 0.253,0.252 0.6022,0.409 0.9875,0.409 0.772,0 1.3986,-0.627 1.3986,-1.399 0,-0.144 -0.0218,-0.283 -0.0623,-0.414"
         id="path101" />
      <path
         style="fill:none;stroke:url(#goldStroke);stroke-width:0.850394;stroke-linecap:round;stroke-linejoin:round"
         d="m 87.533,152.562 c -0.2453,-0.404 -0.6895,-0.674 -1.1965,-0.674 -0.772,0 -1.3986,0.626 -1.3986,1.398 0,0.15 0.0238,0.295 0.0677,0.431"
         id="path102" />
      <path
         style="fill:none;stroke:url(#goldStroke);stroke-width:0.850394;stroke-linecap:round;stroke-linejoin:round"
         d="m 24.5171,179.846 c -0.1103,-0.028 -0.2258,-0.043 -0.3448,-0.043 -0.772,0 -1.3986,0.627 -1.3986,1.399 0,0.009 10e-5,0.019 3e-4,0.029"
         id="path103" />
      <path
         style="fill:none;stroke:url(#goldStroke);stroke-width:0.850394;stroke-linecap:round;stroke-linejoin:round"
         d="m 145.753,70.7941 c 0.27,-0.2044 0.444,-0.5281 0.444,-0.8922 0,-0.6177 -0.501,-1.1189 -1.119,-1.1189 -0.128,0 -0.251,0.0215 -0.365,0.0611"
         id="path104" />
      <path
         style="fill:none;stroke:url(#goldStroke);stroke-width:0.850394;stroke-linecap:round;stroke-linejoin:round"
         d="m 22.9839,170.39 c -10e-4,0.017 -0.0015,0.033 -0.0015,0.05 0,0.463 0.376,0.839 0.8392,0.839 0.258,0 0.4889,-0.116 0.6429,-0.3"
         id="path105" />
      <path
         style="fill:none;stroke:url(#goldStroke);stroke-width:0.850394;stroke-linecap:round;stroke-linejoin:round"
         d="m 292.297,179.812 c -45.971,11.668 -85.033,40.724 -109.764,79.745"
         id="path106" />
      <path
         style="fill:none;stroke:url(#goldStroke);stroke-width:0.850394;stroke-linecap:round;stroke-linejoin:round"
         d="m 179.128,265.148 c -1.344,2.297 -2.639,4.626 -3.884,6.986"
         id="path107" />
      <path
         style="fill:none;stroke:url(#goldStroke);stroke-width:0.850394;stroke-linecap:round;stroke-linejoin:round"
         d="m 171.089,280.523 c -1.491,3.214 -2.891,6.478 -4.197,9.789"
         id="path108" />
      <path
         style="fill:none;stroke:url(#goldStroke);stroke-width:0.850394;stroke-linecap:round;stroke-linejoin:round"
         d="m 162.893,301.504 c -1.142,3.559 -2.178,7.165 -3.105,10.815"
         id="path109" />
      <path
         style="fill:none;stroke:url(#goldStroke);stroke-width:0.850394;stroke-linecap:round;stroke-linejoin:round"
         d="m 292.338,170.994 c -23.51,-27.993 -55.628,-48.52 -92.265,-57.488"
         id="path110" />
      <path
         style="fill:none;stroke:url(#goldStroke);stroke-width:0.850394;stroke-linecap:round;stroke-linejoin:round"
         d="m 116.746,113.507 c -36.6363,8.969 -68.7547,29.496 -92.2646,57.49"
         id="path111" />
      <path
         style="fill:none;stroke:url(#goldStroke);stroke-width:0.850394;stroke-linecap:round;stroke-linejoin:round"
         d="m 159.823,312.329 c -0.028,0.11 -0.043,0.226 -0.043,0.344 0,0.772 0.626,1.399 1.398,1.399 0.01,0 0.02,0 0.029,0"
         id="path112" />
      <path
         style="fill:none;stroke:url(#goldStroke);stroke-width:0.850394;stroke-linecap:round;stroke-linejoin:round"
         d="m 308.063,178.435 c 0,-82.6039 -67.048,-149.6525 -149.652,-149.6525 -82.6033,0 -149.65197,67.0486 -149.65197,149.6525 0,82.603 67.04867,149.652 149.65197,149.652 82.604,0 149.652,-67.049 149.652,-149.652 z"
         id="path113" />
      <path
         style="fill:none;stroke:url(#goldStroke);stroke-width:0.850394;stroke-linecap:round;stroke-linejoin:round"
         d="M 293.842,170.388 C 289.674,99.2451 230.594,42.7687 158.411,42.7687 86.2288,42.7687 27.1486,99.2451 22.9803,170.388"
         id="path114" />
      <path
         style="fill:none;stroke:url(#goldStroke);stroke-width:0.850394;stroke-linecap:round;stroke-linejoin:round"
         d="m 267.143,259.547 c 16.395,-21.935 26.312,-48.989 26.906,-78.316"
         id="path115" />
      <path
         style="fill:none;stroke:url(#goldStroke);stroke-width:0.850394;stroke-linecap:round;stroke-linejoin:round"
         d="m 22.7735,181.232 c 0.5943,29.327 10.5112,56.38 26.9058,78.315"
         id="path116" />
      <path
         style="fill:none;stroke:url(#goldStroke);stroke-width:0.850394;stroke-linecap:round;stroke-linejoin:round"
         d="m 54.0918,265.139 c 1.9979,2.401 4.0771,4.732 6.2332,6.988"
         id="path117" />
      <path
         style="fill:none;stroke:url(#goldStroke);stroke-width:0.850394;stroke-linecap:round;stroke-linejoin:round"
         d="m 256.499,272.125 c 2.156,-2.256 4.235,-4.586 6.232,-6.987"
         id="path118" />
      <path
         style="fill:none;stroke:url(#goldStroke);stroke-width:0.850394;stroke-linecap:round;stroke-linejoin:round"
         d="m 69.0888,280.519 c 4.0013,3.504 8.2103,6.778 12.6058,9.799"
         id="path119" />
      <path
         style="fill:none;stroke:url(#goldStroke);stroke-width:0.850394;stroke-linecap:round;stroke-linejoin:round"
         d="m 235.125,290.32 c 4.397,-3.022 8.608,-6.297 12.61,-9.803"
         id="path120" />
      <path
         style="fill:none;stroke:url(#goldStroke);stroke-width:0.850394;stroke-linecap:round;stroke-linejoin:round"
         d="m 101.334,301.53 c 16.558,7.697 34.924,12.15 54.281,12.542"
         id="path121" />
      <path
         style="fill:none;stroke:url(#goldStroke);stroke-width:0.850394;stroke-linecap:round;stroke-linejoin:round"
         d="m 161.208,314.072 c 19.358,-0.392 37.725,-4.846 54.283,-12.543"
         id="path122" />
      <path
         style="fill:none;stroke:url(#goldStroke);stroke-width:0.850394;stroke-linecap:round;stroke-linejoin:round"
         d="m 221.657,170.858 c 0.222,0.148 0.488,0.235 0.775,0.235 0.33,0 0.634,-0.115 0.874,-0.307"
         id="path123" />
      <path
         style="fill:none;stroke:url(#goldStroke);stroke-width:0.850394;stroke-linecap:round;stroke-linejoin:round"
         d="m 216.814,165.405 c -0.336,0.255 -0.553,0.659 -0.553,1.113 0,0.486 0.248,0.914 0.624,1.165"
         id="path124" />
      <path
         style="fill:none;stroke:url(#goldStroke);stroke-width:0.850394;stroke-linecap:round;stroke-linejoin:round"
         d="m 221.951,135.015 c 0.156,0.06 0.326,0.093 0.503,0.093 0.59,0 1.096,-0.366 1.301,-0.884"
         id="path125" />
      <path
         style="fill:none;stroke:url(#goldStroke);stroke-width:0.850394;stroke-linecap:round;stroke-linejoin:round"
         d="m 225.15,130.694 c 0.064,-0.16 0.098,-0.333 0.098,-0.515 0,-0.595 -0.372,-1.103 -0.896,-1.305"
         id="path126" />
      <path
         style="fill:none;stroke:url(#goldStroke);stroke-width:0.850394;stroke-linecap:round;stroke-linejoin:round"
         d="m 201.489,162.037 c 0.156,0.06 0.325,0.093 0.502,0.093 0.593,0 1.1,-0.37 1.304,-0.891"
         id="path127" />
      <path
         style="fill:none;stroke:url(#goldStroke);stroke-width:0.850394;stroke-linecap:round;stroke-linejoin:round"
         d="m 195.929,158.392 c -0.061,0.158 -0.095,0.329 -0.095,0.508 0,0.595 0.372,1.104 0.896,1.306"
         id="path128" />
      <path
         style="fill:none;stroke:url(#goldStroke);stroke-width:0.850394;stroke-linecap:round;stroke-linejoin:round"
         d="m 177.878,155.683 c 0.031,0.003 0.063,0.004 0.095,0.004 0.74,0 1.346,-0.576 1.395,-1.304"
         id="path129" />
      <path
         style="fill:none;stroke:url(#goldStroke);stroke-width:0.850394;stroke-linecap:round;stroke-linejoin:round"
         d="m 170.963,154.501 c 0.213,0.443 0.652,0.758 1.168,0.792"
         id="path130" />
      <path
         style="fill:none;stroke:url(#goldStroke);stroke-width:0.850394;stroke-linecap:round;stroke-linejoin:round"
         d="m 206.731,130.663 c 0.062,-0.158 0.096,-0.329 0.096,-0.508 0,-0.595 -0.373,-1.104 -0.897,-1.306"
         id="path131" />
      <path
         style="fill:none;stroke:url(#goldStroke);stroke-width:0.850394;stroke-linecap:round;stroke-linejoin:round"
         d="m 215.91,132.69 c -0.156,-0.06 -0.325,-0.093 -0.502,-0.093 -0.593,0 -1.1,0.369 -1.304,0.891"
         id="path132" />
      <path
         style="fill:none;stroke:url(#goldStroke);stroke-width:0.850394;stroke-linecap:round;stroke-linejoin:round"
         d="m 170.437,139.63 c 0.225,0.471 0.706,0.796 1.262,0.796 0.748,0 1.359,-0.587 1.397,-1.326"
         id="path133" />
      <path
         style="fill:none;stroke:url(#goldStroke);stroke-width:0.850394;stroke-linecap:round;stroke-linejoin:round"
         d="m 200.07,113.539 c 0.198,-1.651 0.3,-3.331 0.3,-5.035 0,-18.3632 -11.818,-33.9845 -28.258,-39.6677"
         id="path134" />
      <path
         style="fill:none;stroke:url(#goldStroke);stroke-width:0.850394;stroke-linecap:round;stroke-linejoin:round"
         d="m 144.71,68.8363 c -16.44,5.6832 -28.257,21.3045 -28.257,39.6677 0,1.704 0.101,3.384 0.299,5.035"
         id="path135" />
      <path
         style="fill:none;stroke:url(#goldStroke);stroke-width:0.850394;stroke-linecap:round;stroke-linejoin:round"
         d="m 145.755,70.7955 c -5.056,3.8319 -8.323,9.9015 -8.323,16.729 0,11.5799 9.399,20.9795 20.979,20.9795 11.58,0 20.979,-9.3996 20.979,-20.9795 0,-6.8275 -3.267,-12.8971 -8.322,-16.729"
         id="path136" />
      <path
         style="fill:none;stroke:url(#goldStroke);stroke-width:0.850394;stroke-linecap:round;stroke-linejoin:round"
         d="m 201.218,119.971 c -0.156,-0.06 -0.325,-0.093 -0.502,-0.093 -0.595,0 -1.103,0.372 -1.305,0.895"
         id="path137" />
      <path
         style="fill:none;stroke:url(#goldStroke);stroke-width:0.850394;stroke-linecap:round;stroke-linejoin:round"
         d="m 198.043,124.314 c -0.06,0.157 -0.093,0.326 -0.093,0.504 0,0.595 0.372,1.104 0.896,1.306"
         id="path138" />
      <path
         style="fill:none;stroke:url(#goldStroke);stroke-width:0.850394;stroke-linecap:round;stroke-linejoin:round"
         d="m 181.837,118.103 c 0.002,-0.032 0.004,-0.063 0.004,-0.095 0,-0.74 -0.576,-1.347 -1.304,-1.396"
         id="path139" />
      <path
         style="fill:none;stroke:url(#goldStroke);stroke-width:0.850394;stroke-linecap:round;stroke-linejoin:round"
         d="m 175.71,116.285 c -0.031,-0.002 -0.062,-0.003 -0.094,-0.003 -0.748,0 -1.359,0.587 -1.397,1.325"
         id="path140" />
      <path
         style="fill:none;stroke:url(#goldStroke);stroke-width:0.850394;stroke-linecap:round;stroke-linejoin:round"
         d="m 172.11,68.8441 c -0.115,-0.0396 -0.238,-0.0611 -0.366,-0.0611 -0.617,0 -1.119,0.5012 -1.119,1.1189 0,0.3641 0.175,0.6878 0.444,0.8922"
         id="path141" />
      <path
         style="fill:none;stroke:url(#goldStroke);stroke-width:0.850394;stroke-linecap:round;stroke-linejoin:round"
         d="m 255.643,147.627 c 0.038,-0.128 0.059,-0.263 0.059,-0.403 0,-0.485 -0.248,-0.913 -0.624,-1.164"
         id="path142" />
      <path
         style="fill:none;stroke:url(#goldStroke);stroke-width:0.850394;stroke-linecap:round;stroke-linejoin:round"
         d="m 242.583,184.785 c 0.222,0.148 0.488,0.234 0.775,0.234 0.632,0 1.166,-0.42 1.339,-0.995"
         id="path143" />
      <path
         style="fill:none;stroke:url(#goldStroke);stroke-width:0.850394;stroke-linecap:round;stroke-linejoin:round"
         d="m 237.798,180.373 c -0.045,0.136 -0.069,0.282 -0.069,0.433 0,0.485 0.248,0.913 0.624,1.164"
         id="path144" />
      <path
         style="fill:none;stroke:url(#goldStroke);stroke-width:0.850394;stroke-linecap:round;stroke-linejoin:round"
         d="m 234.017,167.602 c -0.319,0.256 -0.524,0.65 -0.524,1.091 0,0.486 0.248,0.914 0.624,1.164"
         id="path145" />
      <path
         style="fill:none;stroke:url(#goldStroke);stroke-width:0.850394;stroke-linecap:round;stroke-linejoin:round"
         d="m 238.624,165.161 c -0.222,-0.148 -0.489,-0.235 -0.775,-0.235 -0.331,0 -0.635,0.115 -0.874,0.307"
         id="path146" />
      <path
         style="fill:none;stroke:url(#goldStroke);stroke-width:0.850394;stroke-linecap:round;stroke-linejoin:round"
         d="m 249.089,142.074 c -0.222,-0.148 -0.488,-0.234 -0.775,-0.234 -0.317,0 -0.611,0.106 -0.845,0.285"
         id="path147" />
      <path
         style="fill:none;stroke:url(#goldStroke);stroke-width:0.850394;stroke-linecap:round;stroke-linejoin:round"
         d="m 240.562,166.45 c 0.222,0.148 0.488,0.235 0.775,0.235 0.615,0 1.138,-0.399 1.325,-0.951"
         id="path148" />
      <path
         style="fill:none;stroke:url(#goldStroke);stroke-width:0.850394;stroke-linecap:round;stroke-linejoin:round"
         d="m 246.021,155.792 c 0.047,-0.14 0.073,-0.291 0.073,-0.448 0,-0.772 -0.627,-1.398 -1.399,-1.398 -0.336,0 -0.645,0.119 -0.887,0.317"
         id="path149" />
      <path
         style="fill:none;stroke:url(#goldStroke);stroke-width:0.850394;stroke-linecap:round;stroke-linejoin:round"
         d="m 239.628,174.753 c 0.044,-0.136 0.068,-0.282 0.068,-0.433 0,-0.485 -0.248,-0.913 -0.623,-1.164"
         id="path150" />
      <path
         style="fill:none;stroke:url(#goldStroke);stroke-width:0.850394;stroke-linecap:round;stroke-linejoin:round"
         d="m 294.048,181.231 c 0,-0.01 10e-4,-0.02 10e-4,-0.029 0,-0.772 -0.627,-1.399 -1.399,-1.399 -0.119,0 -0.234,0.015 -0.345,0.043"
         id="path151" />
      <path
         style="fill:none;stroke:url(#goldStroke);stroke-width:0.850394;stroke-linecap:round;stroke-linejoin:round"
         d="m 292.358,170.979 c 0.154,0.184 0.385,0.3 0.643,0.3 0.463,0 0.839,-0.376 0.839,-0.839 0,-0.017 -10e-4,-0.033 -0.002,-0.05"
         id="path152" />
      <path
         style="fill:none;stroke:url(#goldStroke);stroke-width:0.850394;stroke-linecap:round;stroke-linejoin:round"
         d="m 158.411,161.651 c -0.233,0 -0.466,0.008 -0.697,0.025 -0.232,0.016 -0.462,0.041 -0.691,0.074 -0.229,0.034 -0.457,0.075 -0.682,0.125 -0.226,0.049 -0.45,0.108 -0.672,0.174 -0.222,0.066 -0.442,0.141 -0.661,0.223 -0.218,0.083 -0.435,0.174 -0.649,0.273 -0.215,0.099 -0.427,0.206 -0.638,0.322 -0.21,0.115 -0.419,0.239 -0.625,0.37 -0.206,0.132 -0.411,0.271 -0.612,0.419 -0.202,0.147 -0.402,0.302 -0.599,0.466 -0.197,0.163 -0.392,0.334 -0.584,0.513 -0.192,0.179 -0.382,0.366 -0.569,0.56 -0.187,0.195 -0.372,0.397 -0.553,0.606 -0.182,0.21 -0.361,0.427 -0.537,0.652 -0.176,0.225 -0.349,0.457 -0.519,0.697 -0.171,0.239 -0.338,0.486 -0.502,0.74 -0.164,0.255 -0.324,0.516 -0.482,0.785 -0.158,0.268 -0.312,0.544 -0.463,0.826 -0.151,0.283 -0.298,0.573 -0.442,0.869 -0.144,0.297 -0.284,0.6 -0.421,0.91 -0.137,0.31 -0.27,0.627 -0.4,0.95 -0.129,0.323 -0.255,0.653 -0.377,0.989 -0.122,0.336 -0.24,0.679 -0.354,1.028 -0.115,0.348 -0.225,0.703 -0.331,1.064 -0.106,0.361 -0.209,0.728 -0.307,1.101 -0.098,0.373 -0.192,0.751 -0.283,1.136 -0.09,0.384 -0.176,0.774 -0.257,1.17 -0.082,0.395 -0.16,0.796 -0.233,1.202 -0.074,0.406 -0.143,0.818 -0.208,1.234 -0.065,0.417 -0.126,0.839 -0.183,1.265 -0.056,0.426 -0.109,0.858 -0.157,1.294 -0.048,0.436 -0.092,0.876 -0.132,1.322 -0.039,0.445 -0.075,0.894 -0.106,1.348 -0.032,0.454 -0.059,0.911 -0.082,1.373 -0.023,0.462 -0.042,0.928 -0.057,1.398 -0.015,0.469 -0.026,0.943 -0.033,1.42 -0.007,0.477 -0.01,0.957 -0.008,1.441 0.001,0.484 0.006,0.971 0.015,1.461 0.008,0.49 0.021,0.983 0.038,1.479 0.016,0.496 0.036,0.994 0.06,1.496 0.024,0.501 0.051,1.005 0.082,1.511 0.031,0.506 0.066,1.014 0.104,1.525 0.038,0.51 0.079,1.023 0.124,1.537 0.045,0.514 0.093,1.031 0.144,1.548 0.051,0.518 0.105,1.037 0.163,1.558 0.057,0.52 0.117,1.042 0.181,1.565 0.063,0.523 0.129,1.047 0.198,1.571 0.068,0.525 0.14,1.051 0.214,1.577 0.074,0.526 0.151,1.052 0.23,1.579 0.08,0.526 0.161,1.054 0.245,1.581 0.084,0.527 0.171,1.054 0.259,1.58 0.089,0.527 0.179,1.053 0.272,1.579 0.092,0.526 0.187,1.052 0.283,1.577 0.097,0.524 0.195,1.048 0.295,1.571 0.1,0.523 0.202,1.045 0.305,1.565 0.104,0.521 0.209,1.04 0.315,1.558 0.106,0.517 0.214,1.033 0.323,1.548 0.109,0.514 0.219,1.026 0.331,1.537 0.111,0.51 0.224,1.019 0.337,1.525 0.114,0.506 0.228,1.01 0.344,1.511 0.115,0.501 0.232,1 0.349,1.495 0.117,0.496 0.234,0.989 0.353,1.479 0.118,0.49 0.237,0.977 0.357,1.461 0.119,0.484 0.239,0.964 0.359,1.441 0.121,0.477 0.241,0.95 0.362,1.42 0.121,0.469 0.242,0.935 0.363,1.397 0.121,0.462 0.242,0.919 0.363,1.373 0.122,0.454 0.243,0.903 0.364,1.348 0.121,0.445 0.242,0.885 0.362,1.321 0.121,0.436 0.241,0.867 0.361,1.294 0.12,0.426 0.239,0.848 0.358,1.264 0.119,0.416 0.237,0.828 0.355,1.234 0.118,0.406 0.235,0.807 0.351,1.202 0.117,0.395 0.232,0.785 0.347,1.169 0.115,0.384 0.229,0.763 0.341,1.136 0.113,0.372 0.225,0.739 0.336,1.1 0.11,0.36 0.22,0.715 0.328,1.064 0.109,0.348 0.216,0.691 0.321,1.026 0.106,0.336 0.21,0.666 0.313,0.989 0.103,0.323 0.204,0.639 0.304,0.949 0.1,0.31 0.198,0.613 0.295,0.909 0.096,0.296 0.191,0.586 0.284,0.868 0.093,0.282 0.184,0.558 0.273,0.826 0.09,0.268 0.177,0.529 0.262,0.783 0.085,0.254 0.169,0.501 0.25,0.74 0.081,0.239 0.16,0.471 0.236,0.696 0.077,0.224 0.152,0.441 0.224,0.65 0.072,0.209 0.142,0.411 0.209,0.605 0.067,0.194 0.132,0.38 0.195,0.559 0.062,0.178 0.122,0.349 0.179,0.512 0.058,0.163 0.113,0.318 0.165,0.465 0.052,0.147 0.101,0.286 0.148,0.417 0.046,0.131 0.09,0.254 0.131,0.369 0.041,0.115 0.08,0.222 0.115,0.321 0.036,0.098 0.068,0.189 0.098,0.271 0.03,0.083 0.056,0.158 0.08,0.223 0.024,0.066 0.045,0.122 0.063,0.173 0.018,0.05 0.033,0.095 0.045,0.127 0.012,0.032 0.021,0.05 0.029,0.073 0.007,0.022 0.013,0.049 0.016,0.049"
         id="path153" />
      <path
         style="fill:none;stroke:url(#goldStroke);stroke-width:0.850394;stroke-linecap:round;stroke-linejoin:round"
         d="m 158.411,262.352 c 0.003,0 0.009,-0.027 0.017,-0.049 0.007,-0.023 0.016,-0.041 0.028,-0.073 0.012,-0.032 0.027,-0.077 0.045,-0.127 0.018,-0.051 0.039,-0.107 0.063,-0.173 0.024,-0.065 0.051,-0.14 0.08,-0.223 0.03,-0.082 0.063,-0.173 0.098,-0.271 0.036,-0.099 0.074,-0.206 0.115,-0.321 0.041,-0.115 0.085,-0.238 0.132,-0.369 0.046,-0.131 0.096,-0.27 0.148,-0.417 0.052,-0.147 0.107,-0.302 0.164,-0.465 0.057,-0.163 0.117,-0.334 0.18,-0.512 0.062,-0.179 0.127,-0.365 0.194,-0.559 0.068,-0.194 0.137,-0.396 0.21,-0.605 0.072,-0.209 0.146,-0.426 0.223,-0.65 0.077,-0.225 0.156,-0.457 0.237,-0.696 0.081,-0.239 0.164,-0.486 0.249,-0.74 0.085,-0.254 0.173,-0.515 0.262,-0.783 0.089,-0.268 0.18,-0.544 0.273,-0.826 0.093,-0.282 0.188,-0.572 0.285,-0.868 0.096,-0.296 0.194,-0.599 0.294,-0.909 0.1,-0.31 0.201,-0.626 0.304,-0.949 0.103,-0.323 0.207,-0.653 0.313,-0.989 0.106,-0.335 0.213,-0.678 0.321,-1.026 0.108,-0.349 0.218,-0.704 0.329,-1.064 0.11,-0.361 0.222,-0.728 0.335,-1.1 0.113,-0.373 0.227,-0.752 0.341,-1.136 0.115,-0.384 0.231,-0.774 0.347,-1.169 0.116,-0.395 0.233,-0.796 0.351,-1.202 0.118,-0.406 0.236,-0.818 0.355,-1.234 0.119,-0.416 0.239,-0.838 0.358,-1.264 0.12,-0.427 0.241,-0.858 0.361,-1.294 0.121,-0.436 0.241,-0.876 0.362,-1.321 0.121,-0.445 0.243,-0.894 0.364,-1.348 0.121,-0.454 0.242,-0.911 0.363,-1.373 0.121,-0.462 0.242,-0.928 0.363,-1.397 0.121,-0.47 0.242,-0.943 0.362,-1.42 0.12,-0.477 0.24,-0.957 0.36,-1.441 0.119,-0.484 0.238,-0.971 0.357,-1.461 0.118,-0.49 0.236,-0.983 0.353,-1.479 0.117,-0.495 0.233,-0.994 0.348,-1.495 0.116,-0.501 0.231,-1.005 0.344,-1.511 0.114,-0.506 0.226,-1.015 0.338,-1.525 0.111,-0.511 0.221,-1.023 0.33,-1.537 0.11,-0.515 0.217,-1.031 0.323,-1.548 0.107,-0.518 0.212,-1.037 0.315,-1.558 0.103,-0.52 0.205,-1.042 0.305,-1.565 0.1,-0.523 0.198,-1.047 0.295,-1.571 0.096,-0.525 0.191,-1.051 0.284,-1.577 0.092,-0.526 0.183,-1.052 0.271,-1.579 0.089,-0.526 0.175,-1.053 0.259,-1.58 0.084,-0.527 0.166,-1.055 0.245,-1.581 0.079,-0.527 0.156,-1.053 0.23,-1.579 0.074,-0.526 0.146,-1.052 0.215,-1.577 0.069,-0.524 0.135,-1.048 0.198,-1.571 0.063,-0.523 0.123,-1.045 0.181,-1.565 0.057,-0.521 0.111,-1.04 0.162,-1.558 0.052,-0.517 0.1,-1.034 0.144,-1.548 0.045,-0.514 0.086,-1.027 0.124,-1.537 0.038,-0.511 0.073,-1.019 0.104,-1.525 0.031,-0.506 0.058,-1.01 0.082,-1.511 0.024,-0.502 0.044,-1 0.061,-1.496 0.016,-0.496 0.029,-0.989 0.038,-1.479 0.009,-0.49 0.014,-0.977 0.015,-1.461 0.001,-0.484 -0.002,-0.964 -0.009,-1.441 -0.007,-0.477 -0.017,-0.951 -0.032,-1.42 -0.015,-0.47 -0.034,-0.936 -0.057,-1.398 -0.024,-0.462 -0.051,-0.919 -0.082,-1.373 -0.032,-0.454 -0.067,-0.903 -0.107,-1.348 -0.04,-0.446 -0.084,-0.886 -0.132,-1.322 -0.048,-0.436 -0.1,-0.868 -0.157,-1.294 -0.057,-0.426 -0.118,-0.848 -0.183,-1.265 -0.065,-0.416 -0.134,-0.828 -0.207,-1.234 -0.074,-0.406 -0.151,-0.807 -0.233,-1.202 -0.082,-0.396 -0.168,-0.786 -0.258,-1.17 -0.09,-0.385 -0.184,-0.763 -0.283,-1.136 -0.098,-0.373 -0.2,-0.74 -0.307,-1.101 -0.106,-0.361 -0.216,-0.716 -0.33,-1.064 -0.115,-0.349 -0.233,-0.692 -0.355,-1.028 -0.122,-0.336 -0.247,-0.666 -0.377,-0.989 -0.129,-0.323 -0.263,-0.64 -0.399,-0.95 -0.137,-0.31 -0.278,-0.613 -0.422,-0.91 -0.144,-0.296 -0.291,-0.586 -0.442,-0.869 -0.151,-0.282 -0.305,-0.558 -0.463,-0.826 -0.157,-0.269 -0.318,-0.53 -0.482,-0.785 -0.164,-0.254 -0.331,-0.501 -0.501,-0.74 -0.17,-0.24 -0.343,-0.472 -0.52,-0.697 -0.176,-0.225 -0.355,-0.442 -0.536,-0.652 -0.182,-0.209 -0.366,-0.411 -0.554,-0.606 -0.187,-0.194 -0.376,-0.381 -0.569,-0.56 -0.192,-0.179 -0.387,-0.35 -0.584,-0.513 -0.197,-0.164 -0.397,-0.319 -0.598,-0.466 -0.202,-0.148 -0.406,-0.287 -0.613,-0.419 -0.206,-0.131 -0.414,-0.255 -0.625,-0.37 -0.21,-0.116 -0.423,-0.223 -0.638,-0.322 -0.214,-0.099 -0.431,-0.19 -0.649,-0.273 -0.219,-0.082 -0.439,-0.157 -0.661,-0.223 -0.222,-0.066 -0.446,-0.125 -0.671,-0.174 -0.226,-0.05 -0.453,-0.091 -0.682,-0.125 -0.229,-0.033 -0.46,-0.058 -0.691,-0.074 -0.232,-0.017 -0.464,-0.025 -0.698,-0.025"
         id="path154" />
    </g>
    <path
       style="fill:url(#goldFill);stroke-width:0.710216"
       d="m 83.57505,204.36456 c -2.855521,-4.55766 -22.217295,-36.67278 -23.050445,-38.23347 -0.723461,-1.35522 -0.312125,-1.76868 4.885534,-4.9108 l 5.675505,-3.43099 11.203975,11.12519 c 6.162187,6.11885 11.676798,11.12518 12.254693,11.12518 1.455244,0 2.755235,-1.44149 2.755235,-3.05514 0,-0.74285 -1.917583,-7.49193 -4.261294,-14.99796 -2.343712,-7.50603 -4.261294,-13.99489 -4.261294,-14.41968 0,-1.19122 11.348321,-7.59851 12.109681,-6.83715 0.71432,0.71431 25.53175,41.35448 25.53175,41.8099 0,0.15456 -1.48158,1.14928 -3.29239,2.21049 -3.89645,2.28347 -2.69765,3.41379 -10.95312,-10.32738 -5.90968,-9.83662 -7.1466,-11.18567 -9.44666,-10.30305 -1.84732,0.70888 -1.42755,3.15923 2.80817,16.39206 2.18546,6.82759 3.86334,12.50764 3.72864,12.62235 -0.13471,0.1147 -1.64725,1.08234 -3.3612,2.15032 l -3.11627,1.94179 -10.09492,-10.07691 c -8.182659,-8.16806 -10.417575,-10.0313 -11.798254,-9.83615 -3.350353,0.47355 -2.583731,3.27854 3.685603,13.48521 3.203467,5.21535 6.277946,10.17629 6.832177,11.02431 0.941236,1.44019 0.829927,1.66266 -1.687839,3.37353 -1.482542,1.00741 -3.096727,1.83166 -3.58708,1.83166 -0.490351,0 -1.64244,-1.19849 -2.560197,-2.66331 z"
       id="path155"
       transform="matrix(0.26458333,0,0,0.26458333,53.582715,90.5454)" />
    <path
       style="fill:url(#goldFill);stroke-width:0.502198"
       d="m 20.597234,187.30498 c -0.0168,-5.97394 2.492998,-21.8464 4.975224,-31.46431 C 33.857836,123.73724 49.744137,96.011143 73.288387,72.562851 99.340989,46.616432 132.23014,29.41345 168.23644,22.899375 c 20.24604,-3.662809 43.4639,-3.67625 63.57382,-0.0368 73.57256,13.314996 131.32399,70.608181 145.27107,144.118365 1.30406,6.87323 2.68929,18.49099 2.48794,20.86592 l -0.15844,1.86872 -4.08683,-4.72036 c -6.47584,-7.47974 -19.94708,-20.32132 -28.53207,-27.19845 -24.87587,-19.9272 -52.19511,-34.10808 -82.38452,-42.76421 l -7.53297,-2.15991 -0.31889,-7.97419 c -0.3451,-8.629852 -1.14464,-12.599022 -3.94833,-19.600902 -5.31462,-13.272644 -16.46201,-24.682544 -29.68371,-30.382731 -5.02872,-2.167997 -5.57383,-2.261172 -6.69126,-1.143733 -1.29537,1.295372 -0.95179,2.037477 2.62658,5.673098 3.63528,3.693434 6.01917,7.6239 7.3504,12.119071 1.07433,3.627705 1.07433,10.936046 0,14.563751 -3.47891,11.747252 -14.05532,19.759456 -26.0832,19.759456 -14.88179,0 -26.97907,-12.103156 -27.02818,-27.041331 -0.0242,-7.358607 2.68956,-13.705453 8.29537,-19.400947 1.87867,-1.908722 3.41576,-3.641311 3.41576,-3.850197 0,-0.208886 -0.36758,-0.904584 -0.81684,-1.545997 -1.02134,-1.458163 -2.24935,-1.26589 -7.54658,1.181581 -15.29616,7.067261 -26.91512,20.902062 -31.22081,37.174914 -1.06141,4.011485 -1.98403,12.662477 -1.89448,17.763867 l 0.0473,2.69792 -5.78332,1.61576 c -33.40726,9.33336 -63.544405,25.47583 -90.202093,48.3153 -5.957666,5.10434 -19.279154,18.334 -24.187162,24.02043 l -2.600707,3.01319 z"
       id="path156"
       transform="matrix(0.26458333,0,0,0.26458333,53.582715,90.5454)" />
    <path
       style="fill:url(#goldFill);stroke-width:0.502198"
       d="M 53.355834,304.30605 C 38.909923,284.35684 27.958802,258.57797 23.135683,233.16797 c -2.152256,-11.3389 -3.739973,-29.54166 -2.636238,-30.2238 0.6684,-0.4131 10.446654,2.31012 19.67642,5.47982 43.708193,15.01035 82.444765,42.28553 111.247885,78.33181 4.84493,6.0633 11.93854,15.81612 13.8069,18.98274 l 1.0962,1.85793 H 111.0327 55.738539 Z"
       id="path157"
       transform="matrix(0.26458333,0,0,0.26458333,53.582715,90.5454)" />
    <path
       style="fill:url(#goldFill);stroke-width:0.502198"
       d="m 196.72666,299.23293 c -13.57472,-42.28228 -18.89543,-78.83768 -14.35211,-98.6047 3.73795,-16.26305 12.05645,-24.48604 21.57288,-21.32519 7.79868,2.5903 13.37803,13.57934 15.03432,29.61146 2.16132,20.9206 -4.56686,58.35872 -17.22434,95.84261 l -1.66972,4.94471 z"
       id="path158"
       transform="matrix(0.26458333,0,0,0.26458333,53.582715,90.5454)" />
    <path
       style="fill:url(#goldFill);stroke-width:0.502198"
       d="m 234.02442,307.32269 c 0,-0.51947 5.20662,-8.03143 10.08332,-14.54793 7.19446,-9.61359 13.69309,-17.05132 23.03268,-26.36106 23.40052,-23.32573 51.0494,-41.59563 81.13411,-53.61202 12.18106,-4.86534 30.34831,-10.55575 31.47576,-9.85895 0.57447,0.35505 0.3291,6.58954 -0.63034,16.01574 -3.04821,29.9478 -14.09149,59.25059 -31.97999,84.85727 l -2.64117,3.78073 H 289.2616 c -30.38045,0 -55.23718,-0.1232 -55.23718,-0.27378 z"
       id="path159"
       transform="matrix(0.26458333,0,0,0.26458333,53.582715,90.5454)" />
    <path
       style="fill:url(#goldFill);stroke-width:0.502198"
       d="m 225.72279,321.03027 c 0.99028,-1.7263 1.97338,-3.42224 2.18465,-3.76874 0.30502,-0.50024 11.59338,-0.60368 54.80467,-0.5022 l 54.42052,0.12781 -3.21752,3.59877 -3.21752,3.59877 -53.38765,0.0422 -53.38766,0.0422 z"
       id="path160"
       transform="matrix(0.26458333,0,0,0.26458333,53.582715,90.5454)" />
    <path
       style="fill:url(#goldFill);stroke-width:0.502198"
       d="m 212.93209,348.04558 c 0,-0.12593 0.99381,-2.55531 2.20848,-5.39864 l 2.20848,-5.16967 49.64349,-0.10902 49.6435,-0.10902 -1.5066,1.26379 c -0.82862,0.69508 -4.00597,3.17353 -7.06077,5.50765 l -5.55417,4.24386 h -44.79121 c -24.63516,0 -44.7912,-0.10303 -44.7912,-0.22895 z"
       id="path161"
       transform="matrix(0.26458333,0,0,0.26458333,53.582715,90.5454)" />
    <path
       style="fill:url(#goldFill);stroke-width:0.502198"
       d="m 202.88812,379.09507 c 0,-1.22411 3.4632,-13.362 3.95885,-13.87504 0.2021,-0.20919 15.04379,-0.32219 32.98153,-0.2511 l 32.61409,0.12925 -7.30972,2.84431 c -17.75879,6.9102 -37.10718,11.06229 -55.08842,11.82178 -6.84485,0.28911 -7.15633,0.25998 -7.15633,-0.6692 z"
       id="path162"
       transform="matrix(0.26458333,0,0,0.26458333,53.582715,90.5454)" />
    <path
       style="fill:url(#goldFill);stroke-width:0.502198"
       d="m 180.55144,379.10655 c -16.41299,-1.88368 -32.03347,-5.79289 -47.21779,-11.81682 l -5.52418,-2.19155 32.61409,-0.12925 c 17.93774,-0.0711 32.77445,0.0419 32.97046,0.2511 0.44951,0.47976 3.96992,12.79075 3.96992,13.88298 0,0.69859 -0.74265,0.80203 -5.39863,0.75196 -2.96925,-0.0319 -8.10549,-0.36872 -11.41387,-0.74842 z"
       id="path163"
       transform="matrix(0.26458333,0,0,0.26458333,53.582715,90.5454)" />
    <path
       style="fill:url(#goldFill);stroke-width:0.502198"
       d="m 92.603972,344.37649 c -2.79048,-2.13732 -5.954329,-4.61292 -7.030776,-5.50134 l -1.957176,-1.6153 49.53825,-0.0168 49.53825,-0.0168 2.31372,5.28313 c 1.27255,2.90573 2.31373,5.39161 2.31373,5.52419 0,0.13257 -20.16954,0.23834 -44.8212,0.23504 l -44.821198,-0.006 z"
       id="path164"
       transform="matrix(0.26458333,0,0,0.26458333,53.582715,90.5454)" />
    <path
       style="fill:url(#goldFill);stroke-width:0.502198"
       d="m 67.043475,321.30058 c -1.381045,-1.5471 -2.806292,-3.22953 -3.167216,-3.73873 -0.636483,-0.89796 0.981412,-0.92581 53.780161,-0.92581 h 54.43638 l 0.55246,1.12994 c 0.30385,0.62147 1.24866,2.31639 2.09956,3.76649 l 1.54711,2.63654 -53.36873,-0.0278 -53.368733,-0.0278 z"
       id="path165"
       transform="matrix(0.26458333,0,0,0.26458333,53.582715,90.5454)" />
    <path
       style="fill:url(#goldFill);stroke-width:0.502198"
       d="m 135.76693,177.75676 c -0.52981,-1.38065 3.58325,-51.98663 4.25923,-52.40441 0.74656,-0.4614 10.14508,-2.7282 10.3379,-2.49337 1.10857,1.35012 26.56058,43.46934 26.60261,44.0233 0.0394,0.51983 -0.91431,1.06265 -2.95495,1.68179 -4.66183,1.41442 -4.75379,1.37857 -7.17196,-2.79627 -3.06825,-5.29714 -2.85828,-5.19931 -8.20195,-3.82165 -3.01356,0.77693 -4.68384,0.99717 -5.0192,0.66181 -0.27644,-0.27644 -0.43386,-1.80031 -0.34982,-3.38639 l 0.1528,-2.88377 2.51099,-0.83036 c 3.71604,-1.22886 3.65245,-2.36173 -0.55475,-9.88299 -1.85003,-3.30732 -3.70351,-6.4088 -4.11885,-6.89217 -0.91531,-1.06523 -2.7752,-1.14237 -3.76156,-0.15602 -0.75576,0.75576 -0.77138,0.9555 -1.88857,24.13599 -0.30617,6.35281 -0.74435,12.02664 -0.97373,12.60851 -0.30593,0.77604 -1.2781,1.27424 -3.64834,1.86962 -1.77721,0.44642 -3.60283,0.95425 -4.05693,1.12851 -0.52811,0.20265 -0.94719,8e-5 -1.16292,-0.56213 z"
       id="path166"
       transform="matrix(0.26458333,0,0,0.26458333,53.582715,90.5454)" />
    <path
       style="fill:url(#goldFill);stroke-width:0.502198"
       d="m 220.52354,168.53123 -2.70362,-0.29479 -7.66002,-16.07035 c -4.21301,-8.83869 -7.92056,-16.35283 -8.239,-16.69809 -0.75284,-0.81626 -3.27932,-0.8088 -3.96027,0.0117 -0.30074,0.36238 -0.89444,7.16218 -1.37022,15.6937 -0.47731,8.55892 -1.05678,15.18993 -1.34304,15.3687 -0.64919,0.40544 -7.04498,-0.0671 -7.58526,-0.56046 -0.55855,-0.51 2.76166,-48.66738 3.41085,-49.47194 0.38235,-0.47387 1.57755,-0.55512 4.62216,-0.31423 2.25855,0.1787 4.20998,0.43557 4.33652,0.57083 0.12653,0.13526 3.66092,7.47758 7.85419,16.31627 4.19327,8.83869 7.99126,16.35284 8.43997,16.6981 1.1039,0.84939 1.82606,0.79021 3.06395,-0.2511 0.9777,-0.82245 1.09599,-1.82771 1.84311,-15.66429 0.43909,-8.13199 0.91128,-14.96816 1.04931,-15.1915 0.32819,-0.53101 6.77909,-0.51265 7.6214,0.0217 0.52741,0.33457 0.35444,4.90473 -0.91678,24.22338 -0.86175,13.09605 -1.7709,24.31948 -2.02032,24.94095 -0.48703,1.21349 -0.99045,1.26596 -6.44293,0.67144 z"
       id="path167"
       transform="matrix(0.26458333,0,0,0.26458333,53.582715,90.5454)" />
    <path
       style="fill:url(#goldFill);stroke-width:0.502198"
       d="m 254.489,176.18676 c -2.22816,-0.84442 -3.38984,-1.55875 -3.38984,-2.08444 0,-0.43988 3.27336,-9.22226 7.27413,-19.5164 5.75748,-14.8142 7.18325,-18.95567 6.83822,-19.86315 -0.33186,-0.87286 -1.76847,-1.66242 -6.01863,-3.30783 -3.0705,-1.18872 -5.58273,-2.3668 -5.58273,-2.61797 0,-0.62914 2.40181,-6.00948 2.68266,-6.00948 0.3691,0 31.69708,12.12975 31.94232,12.36761 0.40711,0.39486 -1.6662,5.81454 -2.32039,6.06558 -0.35232,0.1352 -2.47354,-0.45413 -4.71383,-1.30962 -4.86787,-1.85886 -6.22624,-1.93903 -7.20884,-0.42548 -0.40346,0.62147 -3.78197,8.96702 -7.50779,18.54567 -7.00648,18.01279 -7.64273,19.51484 -8.24647,19.46801 -0.19743,-0.0153 -1.8844,-0.60594 -3.74881,-1.3125 z"
       id="path168"
       transform="matrix(0.26458333,0,0,0.26458333,53.582715,90.5454)" />
    <path
       style="fill:url(#goldFill);stroke-width:0.502198"
       d="m 310.60966,206.34729 c -1.38105,-0.96529 -2.84017,-1.94762 -3.24249,-2.18295 -0.6239,-0.36494 -0.52854,-1.10587 0.64827,-5.03715 0.75887,-2.53511 1.24929,-5.02038 1.08981,-5.52284 -0.15947,-0.50245 -1.9737,-2.00899 -4.03162,-3.34786 -2.05792,-1.33888 -3.7376,-2.7733 -3.73263,-3.18762 0.009,-0.74977 3.93459,-4.0277 4.79802,-4.00642 0.24918,0.006 1.01802,0.4531 1.70855,0.99323 1.74044,1.3614 4.31711,1.31706 5.06866,-0.0872 0.87034,-1.62624 4.9753,-14.04754 4.9753,-15.05488 0,-0.91461 -1.7863,-2.43483 -2.861,-2.43483 -0.3458,0 -2.49891,1.52127 -4.78469,3.38059 -2.28578,1.85932 -8.76484,7.06171 -14.39791,11.56087 -9.56233,7.63747 -10.31211,8.13436 -11.29946,7.48834 -0.58164,-0.38057 -2.24396,-1.42154 -3.69406,-2.31328 -1.4501,-0.89173 -2.63654,-1.91639 -2.63654,-2.27702 0,-0.7557 40.79891,-31.90105 41.78883,-31.90105 0.36072,0 2.53316,1.25686 4.82764,2.79302 3.83666,2.56867 4.1473,2.90148 3.86716,4.14314 -1.00929,4.47338 -14.66588,48.50221 -15.07865,48.61356 -0.27621,0.0745 -1.63215,-0.65432 -3.01319,-1.61962 z"
       id="path169"
       transform="matrix(0.26458333,0,0,0.26458333,53.582715,90.5454)" />
  </g>
</svg>

